<?xml version="1.0" encoding="utf-8"?>
<!-- Generator: Adobe Illustrator 27.7.0, SVG Export Plug-In . SVG Version: 6.00 Build 0)  -->
<svg version="1.2" baseProfile="tiny" id="Layer_1" xmlns="http://www.w3.org/2000/svg" xmlns:xlink="http://www.w3.org/1999/xlink"
	 x="0px" y="0px" viewBox="0 0 300 300" overflow="visible" xml:space="preserve">
<path fill="#F15D34" d="M178.9,26.75l42.45,65.44h-26.73v143.2c0,13.5-17.7,24.45-32.87,24.45c-15.17,0-35.56-9.5-39.13-24.13
	c0-0.02-0.01-0.03-0.01-0.05l-0.92-5.26c0,0,0-0.01,0-0.01V92.18H94.96l42.45-65.44H41.69v0H15.84
	c24.89-0.26,25.86,23.07,25.86,23.07v139.75c0,29.77,12.37,53.31,37.11,70.61c19.4,13.62,43.16,21.25,70.48,22.91c0,0,0,0,0,0
	c3.79,0.23,7.65,0.35,11.58,0.35c33.6-0.42,52.46-8.44,75.33-24.09c25.35-17.31,38.04-40.56,38.04-69.78V26.75H178.9z"/>
</svg>
